<svg width="32" height="32" viewBox="0 0 32 32" fill="none" xmlns="http://www.w3.org/2000/svg">
<g clip-path="url(#clip0_2_163)">
<path d="M14.5934 5.3067H5.30667C4.60296 5.3067 3.92807 5.58625 3.43047 6.08385C2.93287 6.58145 2.65332 7.25634 2.65332 7.96005V26.5335C2.65332 27.2372 2.93287 27.9121 3.43047 28.4097C3.92807 28.9073 4.60296 29.1868 5.30667 29.1868H23.8801C24.5838 29.1868 25.2587 28.9073 25.7563 28.4097C26.2539 27.9121 26.5334 27.2372 26.5334 26.5335V17.2468M24.5434 3.31669C25.0712 2.78891 25.7871 2.4924 26.5334 2.4924C27.2798 2.4924 27.9957 2.78891 28.5235 3.31669C29.0512 3.84447 29.3478 4.5603 29.3478 5.3067C29.3478 6.0531 29.0512 6.76893 28.5235 7.29671L15.9201 19.9001L10.6134 21.2268L11.94 15.9201L24.5434 3.31669Z" stroke="#1E1E1E" stroke-width="4" stroke-linecap="round" stroke-linejoin="round"/>
</g>
<defs>
<clipPath id="clip0_2_163">
<rect width="31.8402" height="31.8402" fill="white"/>
</clipPath>
</defs>
</svg>
